<svg width="13" height="16" viewBox="0 0 13 16" fill="none" xmlns="http://www.w3.org/2000/svg">
<path d="M8.40988 0H4.54198C1.99012 0 0 1.072 0 3.632V14.08H0.641975V15.504C0.641975 15.76 0.78642 16 1.04321 16H2.10247C2.35926 16 2.5679 15.76 2.5679 15.504V14.08H10.2716V15.504C10.2716 15.76 10.5123 16 10.7691 16H11.8284C12.0852 16 12.358 15.76 12.358 15.504V14.08H13V3.632C13 1.072 10.9778 0 8.40988 0ZM4.33333 1.28H8.66667V2.24H4.33333V1.28ZM1.92593 11.968C1.4284 11.968 1.04321 11.568 1.04321 11.088C1.04321 10.592 1.44444 10.208 1.92593 10.208C2.42346 10.208 2.80864 10.608 2.80864 11.088C2.80864 11.568 2.42346 11.968 1.92593 11.968ZM9.30864 11.84H3.53086V11.36H9.30864V11.84ZM3.53086 10.72V10.24H9.30864V10.72H3.53086ZM10.9457 11.968C10.4481 11.968 10.063 11.568 10.063 11.088C10.063 10.592 10.4642 10.208 10.9457 10.208C11.4272 10.208 11.8284 10.608 11.8284 11.088C11.8284 11.568 11.4272 11.968 10.9457 11.968ZM1.12346 7.84V3.52H11.8765V7.84H1.12346Z" fill="#28336D"/>
</svg>
